<svg width="32" height="24" viewBox="0 0 32 24" fill="none" xmlns="http://www.w3.org/2000/svg">
<path d="M0 24V17.1332C0 15.1585 0.370267 13.1052 1.1108 10.9734C1.87377 8.81907 2.90603 6.78822 4.20757 4.88079C5.53156 2.95091 7.01262 1.32399 8.65077 0L14.3057 3.669C12.9818 5.6662 11.871 7.75316 10.9734 9.92988C10.0982 12.0842 9.67181 14.4628 9.69425 17.0659V24H0ZM17.0659 24V17.1332C17.0659 15.1585 17.4362 13.1052 18.1767 10.9734C18.9397 8.81907 19.9719 6.78822 21.2735 4.88079C22.5975 2.95091 24.0785 1.32399 25.7167 0L31.3717 3.669C30.0477 5.6662 28.9369 7.75316 28.0393 9.92988C27.1641 12.0842 26.7377 14.4628 26.7602 17.0659V24H17.0659Z" fill="#CC0000"/>
</svg>
