<svg width="24" height="24" viewBox="0 0 24 24" fill="none" xmlns="http://www.w3.org/2000/svg">
<path d="M19.8602 7.11963C19.8601 6.68711 19.6902 6.18578 19.3797 5.73682C19.069 5.28765 18.6605 4.95296 18.2576 4.80225L13.2733 2.93408C12.9544 2.81779 12.4944 2.74759 12.0027 2.74756C11.5102 2.74756 11.0581 2.81908 10.7527 2.93311L5.76349 4.80225C5.36051 4.95293 4.95122 5.28758 4.64044 5.73682C4.32987 6.1858 4.16008 6.68708 4.15997 7.11963V14.5503C4.16003 14.9912 4.31118 15.5571 4.58868 16.1089C4.86615 16.6605 5.23175 17.1223 5.58868 17.3892L9.88849 20.5991L9.89044 20.6001C10.4425 21.0151 11.2085 21.2446 12.0096 21.2446C12.8108 21.2446 13.5776 21.0152 14.1297 20.6001L14.1317 20.5991L18.4315 17.3892L18.5652 17.2808C18.8782 17.0061 19.1886 16.5917 19.4315 16.1089C19.7089 15.5571 19.8601 14.9912 19.8602 14.5503V7.11963ZM21.3602 14.5503C21.3601 15.2892 21.1211 16.0883 20.7713 16.7837C20.4214 17.4793 19.9217 18.1472 19.3289 18.5903L15.0301 21.7983L15.0311 21.7993C14.1732 22.4443 13.0734 22.7446 12.0096 22.7446C10.9465 22.7446 9.8486 22.4444 8.99103 21.8003L4.69122 18.5913C4.09837 18.1482 3.59879 17.4793 3.24884 16.7837C2.89904 16.0883 2.66003 15.2892 2.65997 14.5503V7.11963C2.66008 6.32244 2.96034 5.52903 3.40704 4.8833C3.8537 4.23767 4.49026 3.67729 5.23712 3.39795L10.2264 1.52783C10.751 1.33189 11.3954 1.24756 12.0027 1.24756C12.6109 1.24758 13.2559 1.33223 13.7869 1.52588L13.7928 1.52783L18.783 3.39795L19.0574 3.51514C19.6858 3.81842 20.2222 4.31827 20.6131 4.8833C21.0598 5.52903 21.3601 6.32244 21.3602 7.11963V14.5503Z" fill="#292D32"/>
<path d="M14.4495 9.16763C14.4354 10.5221 13.3727 11.6265 12.0237 11.6696C12.0159 11.6698 12.0081 11.6706 12.0003 11.6706H11.8704C11.8624 11.6706 11.8539 11.6698 11.846 11.6696C10.4956 11.6265 9.42996 10.5089 9.42996 9.15982C9.43009 7.7758 10.5557 6.65019 11.9397 6.65005C13.3239 6.65005 14.4503 7.77572 14.4505 9.15982L14.4495 9.16763ZM10.93 9.15982C10.93 9.71066 11.3643 10.1536 11.8938 10.1706H11.9759C12.5069 10.1536 12.9446 9.71754 12.9505 9.15201C12.9461 8.59989 12.4928 8.15005 11.9397 8.15005C11.3841 8.15019 10.9301 8.60423 10.93 9.15982Z" fill="#292D32"/>
<path d="M12.0029 12.4226C12.8365 12.4226 13.7096 12.6315 14.4003 13.0984L14.3994 13.0993C15.0339 13.5238 15.4501 14.1571 15.4501 14.8855C15.45 15.6151 15.033 16.2501 14.3964 16.6745L14.3954 16.6736C13.7013 17.1379 12.8285 17.3474 11.9951 17.3474C11.1614 17.3474 10.2879 17.1382 9.59369 16.6736C8.95734 16.2492 8.54013 15.615 8.53998 14.8855C8.53998 14.1558 8.95718 13.5209 9.59369 13.0964L9.59564 13.0954C10.2936 12.6323 11.1686 12.4226 12.0029 12.4226ZM12.0029 13.9226C11.3972 13.9226 10.8268 14.0786 10.4247 14.3454C10.1027 14.5606 10.04 14.7705 10.04 14.8855C10.0401 15.0007 10.1028 15.2112 10.4257 15.4265H10.4277C10.8233 15.6914 11.3891 15.8474 11.9951 15.8474C12.601 15.8474 13.1668 15.6914 13.5624 15.4265H13.5644C13.8872 15.2112 13.95 15.0007 13.9501 14.8855C13.9501 14.7704 13.8873 14.5599 13.5644 14.3445L13.5595 14.3415C13.1704 14.0786 12.6089 13.9226 12.0029 13.9226Z" fill="#292D32"/>
</svg>
