<svg width="24" height="24" viewBox="0 0 24 24" fill="none" xmlns="http://www.w3.org/2000/svg">
<path d="M19.25 8.25C19.25 6.7599 18.8441 6.014 18.3535 5.61133C17.9449 5.27613 17.3743 5.09277 16.6436 5.02832C16.2996 6.30592 15.1348 7.25 13.75 7.25H10.25C9.42285 7.25 8.6746 6.91482 8.12988 6.37012C7.76265 6.00289 7.49366 5.54243 7.35547 5.02832C6.62517 5.09285 6.05489 5.27628 5.64648 5.61133C5.15591 6.014 4.75 6.7599 4.75 8.25V18C4.75 19.3464 5.1456 20.1124 5.66113 20.5576C6.19725 21.0206 6.99287 21.25 8 21.25H16C17.0071 21.25 17.8027 21.0206 18.3389 20.5576C18.8544 20.1124 19.25 19.3464 19.25 18V8.25ZM20.75 18C20.75 19.6533 20.2511 20.8876 19.3193 21.6924C18.408 22.4794 17.2029 22.75 16 22.75H8C6.79713 22.75 5.59204 22.4794 4.68066 21.6924C3.74895 20.8876 3.25 19.6533 3.25 18V8.25C3.25 6.49051 3.73858 5.23608 4.69531 4.45117C5.62113 3.69165 6.8366 3.5 8 3.5C8.41421 3.5 8.75 3.83579 8.75 4.25C8.75 4.66286 8.91515 5.0343 9.19043 5.30957C9.46571 5.58485 9.83716 5.75 10.25 5.75H13.75C14.5758 5.75 15.25 5.07579 15.25 4.25C15.25 3.83579 15.5858 3.5 16 3.5C17.1634 3.5 18.3789 3.69165 19.3047 4.45117C20.2614 5.23608 20.75 6.49051 20.75 8.25V18Z" fill="#292D32"/>
<path d="M15.25 4.25C15.25 3.83714 15.0848 3.4657 14.8096 3.19043C14.5343 2.91515 14.1628 2.75 13.75 2.75H10.25C9.42421 2.75 8.75 3.42421 8.75 4.25C8.75 4.66286 8.91515 5.0343 9.19043 5.30957C9.46571 5.58485 9.83716 5.75 10.25 5.75H13.75C14.5758 5.75 15.25 5.07579 15.25 4.25ZM16.75 4.25C16.75 5.90421 15.4042 7.25 13.75 7.25H10.25C9.42285 7.25 8.6746 6.91482 8.12988 6.37012C7.58516 5.82539 7.25 5.07714 7.25 4.25C7.25 2.59579 8.59579 1.25 10.25 1.25H13.75C14.5771 1.25 15.3254 1.58518 15.8701 2.12988C16.4148 2.67461 16.75 3.42286 16.75 4.25Z" fill="#292D32"/>
<path d="M12 12.25C12.4142 12.25 12.75 12.5858 12.75 13C12.75 13.4142 12.4142 13.75 12 13.75H8C7.58579 13.75 7.25 13.4142 7.25 13C7.25 12.5858 7.58579 12.25 8 12.25H12Z" fill="#292D32"/>
<path d="M16 16.25C16.4142 16.25 16.75 16.5858 16.75 17C16.75 17.4142 16.4142 17.75 16 17.75H8C7.58579 17.75 7.25 17.4142 7.25 17C7.25 16.5858 7.58579 16.25 8 16.25H16Z" fill="#292D32"/>
</svg>
