<svg width="24" height="24" viewBox="0 0 24 24" fill="none" xmlns="http://www.w3.org/2000/svg">
<path d="M11.9999 14.2496C12.4141 14.2496 12.7498 14.5855 12.7499 14.9996V17.9996C12.7499 18.4138 12.4141 18.7496 11.9999 18.7496C11.5857 18.7496 11.2499 18.4138 11.2499 17.9996V14.9996C11.25 14.5855 11.5858 14.2497 11.9999 14.2496Z" fill="black"/>
<path fill-rule="evenodd" clip-rule="evenodd" d="M9.60051 2.234C10.9361 1.16321 13.0575 1.16551 14.4003 2.24474L21.328 7.78381L21.331 7.78576C21.8443 8.19927 22.2292 8.8052 22.4648 9.42248C22.7003 10.0399 22.8171 10.7485 22.7109 11.4L22.7099 11.4029L21.3798 19.3629V19.3649C21.0787 21.1339 19.3972 22.5589 17.6005 22.5592H6.40031C4.59426 22.5592 2.92217 21.1453 2.62102 19.3649L2.62004 19.3629L1.28996 11.4029L1.29094 11.402C1.17911 10.7491 1.29262 10.0402 1.52824 9.42248C1.76444 8.80356 2.15266 8.19712 2.6718 7.78381L9.60051 2.234ZM13.4599 3.41369C12.6629 2.77356 11.3232 2.77629 10.539 3.4049L3.6093 8.9547L3.60735 8.95666C3.34756 9.16315 3.09567 9.52162 2.92961 9.95666C2.78439 10.3373 2.72719 10.7172 2.75285 11.024L2.76945 11.151L2.77043 11.1559L4.09953 19.1149L4.14348 19.3111C4.41015 20.2812 5.39373 21.0592 6.40031 21.0592H17.6005C18.6627 21.0589 19.7204 20.1655 19.9003 19.1158L21.2304 11.1559C21.2831 10.8281 21.2297 10.3925 21.0634 9.95666C20.8969 9.52052 20.6471 9.16231 20.3915 8.95568L13.4618 3.41564L13.4599 3.41369Z" fill="black"/>
</svg>
