<svg width="24" height="24" viewBox="0 0 24 24" fill="none" xmlns="http://www.w3.org/2000/svg">
<path d="M10.9329 12.2144C11.0354 11.8133 11.4439 11.5712 11.845 11.6734L14.7444 12.4136C15.1457 12.516 15.3887 12.9244 15.2864 13.3257C15.1839 13.7268 14.7755 13.9689 14.3743 13.8667L11.4739 13.1265C11.0729 13.0239 10.8305 12.6156 10.9329 12.2144Z" fill="#292D32"/>
<path d="M11.9134 8.34525C12.0155 7.94414 12.4232 7.70149 12.8245 7.80326L17.6741 9.03275C18.0754 9.13453 18.3185 9.54261 18.2171 9.94389C18.1153 10.3453 17.7073 10.5884 17.306 10.4869L12.4554 9.25639C12.054 9.15444 11.8116 8.74666 11.9134 8.34525Z" fill="#292D32"/>
<path fill-rule="evenodd" clip-rule="evenodd" d="M11.1907 2.0474C12.4448 1.6146 13.9396 1.6816 15.6692 2.09037L15.6702 2.0894L17.3401 2.48002C19.5072 2.98689 21.1131 3.81594 21.9905 5.23002C22.8677 6.64412 22.8967 8.44907 22.3899 10.6109L21.4095 14.7886L21.4104 14.7896C20.9753 16.6598 20.2992 18.1113 19.2122 19.0415C18.1586 19.943 16.8275 20.2635 15.2532 20.1568C14.6 20.5619 13.8264 20.8948 12.9427 21.1831L12.9417 21.1822L11.3645 21.7027L11.3597 21.7037C9.30507 22.3661 7.55156 22.4854 6.10771 21.7466C4.66429 21.0079 3.73415 19.5156 3.06669 17.4615L1.78642 13.5113L1.78544 13.5103C1.12328 11.4565 1.00223 9.70127 1.73759 8.25639C2.47313 6.81131 3.96156 5.88004 6.01494 5.21733L7.59502 4.69779L7.60283 4.69486C7.90102 4.60032 8.2005 4.51293 8.49638 4.44193C9.13585 3.27248 10.0101 2.45502 11.1907 2.0474ZM6.48369 6.64213L6.47978 6.64408C4.56564 7.26126 3.54091 8.02073 3.07451 8.93705C2.6077 9.85445 2.59574 11.134 3.21318 13.0494L4.49345 16.9986C5.1159 18.9142 5.87502 19.9428 6.7913 20.4117C7.65018 20.851 8.82632 20.89 10.5481 20.3843L10.8997 20.2759L12.4749 19.7574H12.4769C12.5324 19.7392 12.5869 19.719 12.6409 19.7007L11.5862 19.4497C9.42985 18.9377 7.82826 18.1085 6.95146 16.6968C6.07424 15.2843 6.04204 13.4818 6.54912 11.3189L7.52959 7.12943C7.60354 6.81515 7.68315 6.51003 7.7708 6.2183L6.48369 6.64213ZM15.3265 3.55033C13.7177 3.1699 12.5475 3.16597 11.68 3.46537C10.8476 3.75284 10.1932 4.35472 9.67509 5.42631L9.67216 5.43119C9.40613 5.97221 9.18221 6.6534 8.98955 7.47221L8.01005 11.6607C7.53732 13.6772 7.65996 14.996 8.2249 15.9058C8.79052 16.8165 9.91969 17.5128 11.9329 17.9908L13.6136 18.3902L13.6155 18.3912C14.0269 18.4904 14.4117 18.5612 14.7698 18.606L15.1194 18.6421L15.1311 18.6431C16.5603 18.7805 17.529 18.5072 18.2366 17.9019C18.9696 17.2746 19.5437 16.1895 19.9485 14.4497L19.9495 14.4488L20.929 10.2691C21.4021 8.25125 21.2812 6.93082 20.7161 6.02006C20.1509 5.10952 19.0208 4.41301 16.9983 3.93998L15.3294 3.55033H15.3265Z" fill="#292D32"/>
</svg>
