<svg width="24" height="24" viewBox="0 0 24 24" fill="none" xmlns="http://www.w3.org/2000/svg">
<path d="M21.25 12C21.25 6.91421 17.0858 2.75 12 2.75C6.91421 2.75 2.75 6.91421 2.75 12C2.75 17.0858 6.91421 21.25 12 21.25C17.0858 21.25 21.25 17.0858 21.25 12ZM22.75 12C22.75 17.9142 17.9142 22.75 12 22.75C6.08579 22.75 1.25 17.9142 1.25 12C1.25 6.08579 6.08579 1.25 12 1.25C17.9142 1.25 22.75 6.08579 22.75 12Z" fill="#292D32"/>
<path d="M12.7493 12L12.7493 17C12.7493 17.4142 12.4135 17.75 11.9993 17.75C11.585 17.75 11.2493 17.4142 11.2493 17L11.2493 12C11.2493 11.5858 11.585 11.25 11.9993 11.25C12.4135 11.25 12.7493 11.5858 12.7493 12Z" fill="#292D32"/>
<path d="M11.9958 10C11.4436 10 10.9958 9.55229 10.9958 9C10.9958 8.44772 11.4436 8 11.9958 8H12.0046C12.5569 8 13.0046 8.44772 13.0046 9C13.0046 9.55229 12.5569 10 12.0046 10H11.9958Z" fill="#292D32"/>
</svg>
