<svg width="24" height="24" viewBox="0 0 24 24" fill="none" xmlns="http://www.w3.org/2000/svg">
<path d="M17.62 8.13C18.0342 8.13 18.37 8.46579 18.37 8.88C18.37 9.29421 18.0342 9.63 17.62 9.63H12.37C11.9558 9.63 11.62 9.29421 11.62 8.88C11.62 8.46579 11.9558 8.13 12.37 8.13H17.62Z" fill="#292D32"/>
<path d="M8.84973 6.84973C9.14262 6.55683 9.61738 6.55683 9.91027 6.84973C10.2032 7.14262 10.2032 7.61738 9.91027 7.91027L7.66027 10.1603C7.36738 10.4532 6.89262 10.4532 6.59973 10.1603L5.84973 9.41027C5.55683 9.11738 5.55683 8.64262 5.84973 8.34973C6.14262 8.05683 6.61738 8.05683 6.91027 8.34973L7.13 8.56945L8.84973 6.84973Z" fill="#292D32"/>
<path d="M17.62 15.13C18.0342 15.13 18.37 15.4658 18.37 15.88C18.37 16.2942 18.0342 16.63 17.62 16.63H12.37C11.9558 16.63 11.62 16.2942 11.62 15.88C11.62 15.4658 11.9558 15.13 12.37 15.13H17.62Z" fill="#292D32"/>
<path d="M8.84973 13.8497C9.14262 13.5568 9.61738 13.5568 9.91027 13.8497C10.2032 14.1426 10.2032 14.6174 9.91027 14.9103L7.66027 17.1603C7.36738 17.4532 6.89262 17.4532 6.59973 17.1603L5.84973 16.4103C5.55683 16.1174 5.55683 15.6426 5.84973 15.3497C6.14262 15.0568 6.61738 15.0568 6.91027 15.3497L7.13 15.5695L8.84973 13.8497Z" fill="#292D32"/>
<path d="M21.25 9C21.25 6.57397 20.7603 5.0708 19.8447 4.15527C18.9292 3.23974 17.426 2.75 15 2.75H9C6.57397 2.75 5.0708 3.23974 4.15527 4.15527C3.23974 5.0708 2.75 6.57397 2.75 9V15C2.75 17.426 3.23974 18.9292 4.15527 19.8447C5.0708 20.7603 6.57397 21.25 9 21.25H15C17.426 21.25 18.9292 20.7603 19.8447 19.8447C20.7603 18.9292 21.25 17.426 21.25 15V9ZM22.75 15C22.75 17.574 22.2397 19.5708 20.9053 20.9053C19.5708 22.2397 17.574 22.75 15 22.75H9C6.42603 22.75 4.4292 22.2397 3.09473 20.9053C1.76026 19.5708 1.25 17.574 1.25 15V9C1.25 6.42603 1.76026 4.4292 3.09473 3.09473C4.4292 1.76026 6.42603 1.25 9 1.25H15C17.574 1.25 19.5708 1.76026 20.9053 3.09473C22.2397 4.4292 22.75 6.42603 22.75 9V15Z" fill="#292D32"/>
</svg>
