<svg width="24" height="24" viewBox="0 0 24 24" fill="none" xmlns="http://www.w3.org/2000/svg">
<path d="M1.25 15.0001V9.00007C1.25 6.4261 1.76026 4.42927 3.09473 3.0948C4.4292 1.76033 6.42603 1.25007 9 1.25007H11C11.4142 1.25007 11.75 1.58586 11.75 2.00007C11.75 2.41428 11.4142 2.75007 11 2.75007H9C6.57397 2.75007 5.0708 3.23981 4.15527 4.15534C3.23974 5.07087 2.75 6.57404 2.75 9.00007V15.0001C2.75 17.4261 3.23974 18.9293 4.15527 19.8448C5.0708 20.7603 6.57397 21.2501 9 21.2501H15C17.426 21.2501 18.9292 20.7603 19.8447 19.8448C20.7603 18.9293 21.25 17.4261 21.25 15.0001V13.0001C21.25 12.5859 21.5858 12.2501 22 12.2501C22.4142 12.2501 22.75 12.5859 22.75 13.0001V15.0001C22.75 17.574 22.2397 19.5709 20.9053 20.9053C19.5708 22.2398 17.574 22.7501 15 22.7501H9C6.42603 22.7501 4.4292 22.2398 3.09473 20.9053C1.76026 19.5709 1.25 17.574 1.25 15.0001Z" fill="#292D32"/>
<path d="M18.1964 1.01349C19.3097 0.904205 20.4135 1.39367 21.5099 2.49005C22.6063 3.58648 23.0957 4.69018 22.9865 5.80353C22.881 6.87745 22.2328 7.76716 21.5099 8.49005L13.6212 16.3787C13.3961 16.5966 13.1024 16.7877 12.8185 16.9305C12.5361 17.0724 12.2029 17.1977 11.8859 17.243L8.8761 17.6727H8.87219C8.13011 17.7748 7.42014 17.5721 6.922 17.076C6.4232 16.5791 6.21948 15.8697 6.32825 15.1238L6.75793 12.116C6.80286 11.7946 6.92645 11.4592 7.06946 11.1746C7.2127 10.8896 7.40632 10.5936 7.63 10.3699L15.5099 2.49005C16.2327 1.76719 17.1225 1.11901 18.1964 1.01349ZM18.3429 2.50665C17.787 2.56135 17.2074 2.91368 16.5704 3.5506L8.69055 11.4305C8.61423 11.5068 8.50704 11.6559 8.41028 11.8484C8.31347 12.0411 8.2584 12.2157 8.24329 12.324L8.24231 12.326L7.81262 15.3358L7.81164 15.3387C7.76129 15.6817 7.86266 15.896 7.98059 16.0135C8.09954 16.132 8.31831 16.234 8.66418 16.1873L11.6739 15.7576C11.7769 15.7429 11.9495 15.6877 12.1447 15.5897C12.3325 15.4952 12.4842 15.3886 12.5704 15.3074L20.4493 7.4295C21.0863 6.79254 21.4386 6.21295 21.4933 5.65704C21.544 5.14039 21.3529 4.45417 20.4493 3.5506C19.5458 2.64709 18.8595 2.45594 18.3429 2.50665Z" fill="#292D32"/>
<path d="M14.7079 3.42839C15.1066 3.31668 15.5199 3.54913 15.6317 3.94792C16.2308 6.08496 17.9042 7.75956 20.0545 8.36882C20.453 8.4818 20.684 8.89613 20.5711 9.2946C20.4581 9.69301 20.0438 9.9241 19.6454 9.8112C16.9959 9.0604 14.9292 6.995 14.1883 4.35222C14.0766 3.95343 14.3091 3.54018 14.7079 3.42839Z" fill="#292D32"/>
</svg>
